<svg width="14" height="14" viewBox="0 0 14 14" fill="none" xmlns="http://www.w3.org/2000/svg">
<path fill-rule="evenodd" clip-rule="evenodd" d="M6.3335 1.66671C3.75617 1.66671 1.66683 3.75605 1.66683 6.33337C1.66683 8.9107 3.75617 11 6.3335 11C8.91083 11 11.0002 8.9107 11.0002 6.33337C11.0002 3.75605 8.91083 1.66671 6.3335 1.66671ZM0.333496 6.33337C0.333496 3.01967 3.01979 0.333374 6.3335 0.333374C9.64721 0.333374 12.3335 3.01967 12.3335 6.33337C12.3335 9.64708 9.64721 12.3334 6.3335 12.3334C3.01979 12.3334 0.333496 9.64708 0.333496 6.33337Z" fill="#A7A7A7"/>
<path fill-rule="evenodd" clip-rule="evenodd" d="M9.62837 9.62861C9.88872 9.36826 10.3108 9.36826 10.5712 9.62861L13.4712 12.5286C13.7315 12.789 13.7315 13.2111 13.4712 13.4714C13.2108 13.7318 12.7887 13.7318 12.5284 13.4714L9.62837 10.5714C9.36802 10.3111 9.36802 9.88896 9.62837 9.62861Z" fill="#A7A7A7"/>
</svg>
