<svg width="16" height="16" viewBox="0 0 16 16" fill="none" xmlns="http://www.w3.org/2000/svg">
<path fill-rule="evenodd" clip-rule="evenodd" d="M7.33301 2.66671C4.75568 2.66671 2.66634 4.75605 2.66634 7.33337C2.66634 9.9107 4.75568 12 7.33301 12C9.91034 12 11.9997 9.9107 11.9997 7.33337C11.9997 4.75605 9.91034 2.66671 7.33301 2.66671ZM1.33301 7.33337C1.33301 4.01967 4.0193 1.33337 7.33301 1.33337C10.6467 1.33337 13.333 4.01967 13.333 7.33337C13.333 10.6471 10.6467 13.3334 7.33301 13.3334C4.0193 13.3334 1.33301 10.6471 1.33301 7.33337Z" fill="url(#paint0_linear_20440_2349)"/>
<path fill-rule="evenodd" clip-rule="evenodd" d="M10.6289 10.6286C10.8892 10.3683 11.3113 10.3683 11.5717 10.6286L14.4717 13.5286C14.732 13.789 14.732 14.2111 14.4717 14.4714C14.2113 14.7318 13.7892 14.7318 13.5289 14.4714L10.6289 11.5714C10.3685 11.3111 10.3685 10.889 10.6289 10.6286Z" fill="url(#paint1_linear_20440_2349)"/>
<defs>
<linearGradient id="paint0_linear_20440_2349" x1="7.11688" y1="-20.9791" x2="-39.2612" y2="15.8034" gradientUnits="userSpaceOnUse">
<stop stop-color="#F83600"/>
<stop offset="1" stop-color="#F9D423"/>
</linearGradient>
<linearGradient id="paint1_linear_20440_2349" x1="12.474" y1="2.56199" x2="-3.88716" y2="15.538" gradientUnits="userSpaceOnUse">
<stop stop-color="#F83600"/>
<stop offset="1" stop-color="#F9D423"/>
</linearGradient>
</defs>
</svg>
