<svg width="15" height="15" viewBox="0 0 15 15" fill="none" xmlns="http://www.w3.org/2000/svg">
<path fill-rule="evenodd" clip-rule="evenodd" d="M1.14773 0.5C0.789997 0.5 0.5 0.789997 0.5 1.14773V6.32955C0.5 6.68728 0.789997 6.97727 1.14773 6.97727H6.32955C6.68728 6.97727 6.97727 6.68728 6.97727 6.32955V1.14773C6.97727 0.789997 6.68728 0.5 6.32955 0.5H1.14773ZM1.79545 5.68182V1.79545H5.68182V5.68182H1.79545ZM8.92045 0.5C8.56273 0.5 8.27273 0.789997 8.27273 1.14773V6.32955C8.27273 6.68728 8.56273 6.97727 8.92045 6.97727H14.1023C14.46 6.97727 14.75 6.68728 14.75 6.32955V1.14773C14.75 0.789997 14.46 0.5 14.1023 0.5H8.92045ZM9.56818 5.68182V1.79545H13.4545V5.68182H9.56818ZM0.5 8.92045C0.5 8.56273 0.789997 8.27273 1.14773 8.27273H6.32955C6.68728 8.27273 6.97727 8.56273 6.97727 8.92045V14.1023C6.97727 14.46 6.68728 14.75 6.32955 14.75H1.14773C0.789997 14.75 0.5 14.46 0.5 14.1023V8.92045ZM1.79545 9.56818V13.4545H5.68182V9.56818H1.79545ZM8.92045 8.27273C8.56273 8.27273 8.27273 8.56273 8.27273 8.92045V14.1023C8.27273 14.46 8.56273 14.75 8.92045 14.75H14.1023C14.46 14.75 14.75 14.46 14.75 14.1023V8.92045C14.75 8.56273 14.46 8.27273 14.1023 8.27273H8.92045ZM9.56818 13.4545V9.56818H13.4545V13.4545H9.56818Z" fill="white"/>
</svg>
